<?xml version="1.0" encoding="utf-8"?>
<!-- Generator: Adobe Illustrator 26.0.2, SVG Export Plug-In . SVG Version: 6.00 Build 0)  -->
<svg version="1.1" id="Layer_1" xmlns="http://www.w3.org/2000/svg" xmlns:xlink="http://www.w3.org/1999/xlink" x="0px" y="0px"
	 viewBox="0 0 240 50" style="enable-background:new 0 0 240 50;" xml:space="preserve">
<style type="text/css">
	.st0{fill-rule:evenodd;clip-rule:evenodd;fill:#FD0000;}
	.st1{fill-rule:evenodd;clip-rule:evenodd;}
	.st2{fill:#B11A2C;}
</style>
<g>
	<path id="ORLEN" class="st0" d="M207,42.9v-3h-3.4v-8h-3.9v11L207,42.9z M227.9,42.9V32h-3.5v3.9c0,0.5,0.1,1.1,0.1,1.8l-3.8-5.7
		h-3.3v10.9h3.5v-4.1c0-0.6,0-1.1-0.1-1.6l3.8,5.7L227.9,42.9z M216.3,42.9v-3h-4.7v-1.3h2.2V36h-2.2v-1.3h4.2V32h-7.7V43
		L216.3,42.9z M192.4,36.9v-2.2h0.6c0.9,0,1.3,0.5,1.3,1.2c0,0.7-0.5,1.2-1.3,1.2h-0.6V36.9z M198.6,42.9l-2.9-4.5
		c1.2-0.2,2.1-1.2,2.1-2.7c0-2.4-1.5-3.7-4.4-3.7H189V43h3.5v-3.6l1.8,3.6L198.6,42.9z M182.1,35.3c1.2,0,2.2,0.9,2.3,2.2v0.1
		c0,1.2-1,2.2-2.3,2.2c-1.3,0-2.3-1-2.4-2.2C179.7,36.2,180.7,35.3,182.1,35.3 M182.1,31.7c3.2,0,5.7,2.7,5.7,5.9
		c0,3.2-2.6,5.7-5.7,5.7c-3.2,0.1-5.8-2.4-5.9-5.6v-0.1C176.2,34.3,178.8,31.7,182.1,31.7 M231.9,45.6h-58.9V29.3h58.9V45.6z
		 M223.1,7.4L223.1,7.4L222.7,7c-1.7-1.7-3.9-2.6-6.3-2.6h-6.4c-2.8,0-5.2,2.1-5.6,4.8h12c1.1,0,2.1,0.4,2.8,1.2l3.9,3.9
		c1.9,1.8,4.9,1.8,6.7-0.1L223.1,7.4L223.1,7.4z M213,13.5c1.3,0,2.3-1,2.3-2.3c0-0.4-0.1-0.8-0.3-1.2h-4c-0.2,0.4-0.3,0.8-0.3,1.2
		C210.7,12.5,211.7,13.5,213,13.5L213,13.5z M217.5,26.7c1.9-1.9,1.9-4.9,0-6.8l-7.5-7.5c-1.5-1.5-3.6-2.4-5.7-2.4h-0.7
		c-2.7,0-4.8,2.2-4.8,4.8c0,1,0.3,1.9,0.8,2.7c-0.2-1.3,0.7-2.5,2-2.7c0.1,0,0.2,0,0.3,0h2.3c0.9,0,1.7,0.3,2.3,0.9L217.5,26.7
		L217.5,26.7z"/>
	<polyline id="Divider_Line" class="st1" points="155.1,0 156.4,0 156.4,50 155.1,50 	"/>
	<path id="F1_Team" class="st2" d="M49.9,43v-8.7h5.5v1.5h-3.8v2.6h3.1v1.5h-3.1V43H49.9z M60.4,34.5V43h-1.8v-6.4l-1.8,1.2L56,36.4
		l2.8-1.9H60.4z M62.2,34.9c0,0.3-0.2,0.5-0.5,0.5c-0.3,0-0.5-0.2-0.5-0.5c0-0.3,0.2-0.5,0.5-0.5C61.9,34.4,62.2,34.6,62.2,34.9z
		 M61.3,34.9c0,0.2,0.2,0.4,0.4,0.4c0.2,0,0.4-0.2,0.4-0.4c0-0.2-0.2-0.4-0.4-0.4C61.4,34.5,61.3,34.7,61.3,34.9z M61.6,35.1h-0.1
		v-0.5c0,0,0.1,0,0.2,0c0.1,0,0.1,0,0.2,0c0,0,0,0.1,0,0.1c0,0.1,0,0.1-0.1,0.1v0c0,0,0.1,0.1,0.1,0.1c0,0.1,0,0.1,0,0.1h-0.1
		c0,0,0-0.1,0-0.1c0-0.1,0-0.1-0.1-0.1h-0.1V35.1z M61.6,34.9L61.6,34.9c0.1,0,0.2,0,0.2-0.1c0,0,0-0.1-0.1-0.1c0,0-0.1,0-0.1,0
		V34.9z M66.1,35.8v-1.6h6.4v1.6h-2.3V43h-1.8v-7.1H66.1z M73.9,43v-8.7h5.6v1.5h-3.9v2h3.1v1.5h-3.1v2.1h3.9V43H73.9z M80.6,43
		l2-8.7h3.3l2,8.7h-1.8l-0.3-1.6h-3L82.3,43H80.6z M83.9,35.7L83,39.9h2.4l-0.9-4.1H83.9z M89.3,43v-8.7h3l1.5,6.3l1.5-6.3h3V43
		h-1.8v-6.7h-0.2l-1.7,6.3H93l-1.7-6.3h-0.2V43H89.3z"/>
	<path id="Alfa_Romeo" class="st1" d="M141.1,14c-0.3,1.4-1.4,2.4-2.8,2.6c0-0.1,0-0.1,0-0.2c-0.1-1-0.9-1.7-1.9-1.8
		c-0.7-0.1-1.4-0.1-2,0.1c-1.9,0.4-3.6,1.3-5,2.5c-0.8,0.7-1.6,1.5-1.9,2.5c-0.2,0.6-0.6,1.1-1.2,1.2c-0.1,0-0.1,0-0.2,0.1
		c-1,0.4-2.1,0.6-3.2,0.6c-0.6,0-1.1-0.2-1.6-0.5c-0.3-0.1-0.5-0.4-0.6-0.7l0.2-0.1c1-0.4,1.9-0.8,2.9-1.2c0.9-0.4,1.7-0.9,2.3-1.6
		c0.5-0.4,0.8-1,1-1.6c0,0,0,0,0-0.1c0.1-0.5-0.1-1-0.6-1.1c-0.3-0.1-0.6-0.2-0.9-0.2c-1.3,0-2.6,0.3-3.8,0.9
		c-2.1,1-3.7,2.5-4.4,4.8c-0.1,0.2-0.2,0.3-0.4,0.4c-0.7,0.3-1.5,0.6-2.3,0.6c-0.3,0-0.6,0-0.9,0c-0.3,0-0.4-0.2-0.3-0.4
		c0.1-0.2,0.2-0.4,0.3-0.6c0.4-0.5,0.8-1,1.2-1.5c0.5-0.6,1-1.1,1.4-1.7c0.2-0.3,0.3-0.6,0.4-1c0.1-0.4-0.1-0.7-0.5-0.8
		c-0.3-0.1-0.7-0.2-1.1-0.1c-1.3,0.3-2.6,0.7-3.9,1l-0.7,0.2v-0.3c0-0.7-0.3-1-1-1c-0.4,0-0.8,0.1-1.2,0.2c-1.1,0.3-2.1,0.6-3.2,0.9
		c-0.3,0.1-0.5,0.1-0.8,0.2c0-0.2,0-0.2,0-0.3c0,0,0-0.1,0-0.1c0-0.5-0.4-0.8-0.9-0.8c-0.3,0-0.6,0-0.9,0c-1.1,0.2-2.2,0.5-3.3,0.7
		c-0.8,0.2-1.6,0.4-2.4,0.7c0-0.1,0-0.1-0.1-0.2c-0.2-1.1-0.9-1.6-1.9-1.8c-0.7-0.1-1.3-0.1-2,0.1c-2,0.4-3.9,1.4-5.4,2.9
		c-0.8,0.7-1.5,1.7-1.8,2.8c0,0.2-0.2,0.3-0.3,0.4c-0.6,0.2-1.2,0.4-1.8,0.6c-0.2,0-0.4,0.1-0.6,0c-0.6,0-0.8-0.3-0.6-0.9
		c0.1-0.2,0.2-0.4,0.3-0.7c0.2-0.5,0.5-0.9,0.7-1.4c0.3-0.7,0.6-1.4,0.3-2.2c0.6-0.2,1.1-0.4,1.7-0.6c1.4-0.5,2.6-1.3,3.5-2.3
		c1.3-1.5,1.5-3.6,0.6-5.3c-0.5-0.9-1.3-1.7-2.2-2.2c-0.1-0.1-0.3-0.2-0.5-0.3l1.3-0.9c0,0,0-0.1,0-0.1c-0.4,0-0.7,0-1.1,0
		c-0.4-0.1-0.8,0.1-1.2,0.3c-0.2,0.1-0.4,0.2-0.6,0.1c-1-0.2-2-0.4-3-0.5c-3-0.3-6,0.3-8.7,1.5c-1.7,0.8-3.2,1.8-4.5,3.2
		c-0.9,0.9-1.6,2-1.9,3.3c-0.3,1.3-0.1,2.5,1,3.3c0.8,0.6,1.7,0.9,2.7,1c0.1,0,0.3,0,0.4-0.1c0.7-0.6,1.3-1.2,2-1.8
		c0.1-0.1,0.1-0.2,0.2-0.3l-0.9,0c-1.8-0.1-3.6-1.9-2.3-4.1c0.3-0.5,0.7-1,1.2-1.5c1.1-0.9,2.3-1.6,3.6-2.1c2.1-0.8,4.4-1,6.7-0.7
		c0.6,0.1,1.1,0.2,1.8,0.4l-0.3,0.3c-0.5,0.5-1.1,0.9-1.5,1.5c-1.1,1.3-2.3,2.6-3.4,3.9c-1.3,1.6-2.7,3.2-4.2,4.7
		c-0.8,0.8-1.7,1.5-2.7,2.1c-0.7,0.4-1.4,0.7-2.2,0.7c-0.8,0.1-1.7-0.1-2.4-0.5c-0.4-0.3-0.4-0.3-0.8,0.1c-0.2,0.2-0.4,0.4-0.6,0.6
		c-0.7,0.6-1.3,1.2-2,1.7c-0.4,0.4-0.4,0.5,0.1,0.7c0.4,0.2,0.8,0.3,1.2,0.4c1.8,0.7,3.8,0.7,5.6,0c1.5-0.6,2.8-1.4,4-2.6
		c1.4-1.4,2.7-2.9,3.8-4.5c0.1-0.1,0.2-0.2,0.2-0.3c0,0,0.1,0.1,0.1,0.1c0.6,0.9,1.8,1.4,2.9,1.1c0.2,0,0.3,0,0.5-0.1
		c-0.1,0.2-0.2,0.5-0.4,0.7c-0.2,0.4-0.5,0.7-0.8,1.1c-0.7,0.8-1.4,1.7-2.2,2.5c-0.2,0.2-0.4,0.5-0.6,0.7c-0.1,0.1-0.1,0.3-0.2,0.4
		c-0.1,0.5,0.3,1,0.8,1.1c0.4,0.1,0.9,0.1,1.4,0.1c1.6-0.1,3.2-0.5,4.7-1c0.4-0.1,0.9-0.3,1.3-0.5c0.1,0.1,0.1,0.1,0.1,0.2
		c0.4,0.7,1.1,1.2,1.9,1.3c0.7,0.1,1.4,0.1,2.1-0.1c1.7-0.4,3.3-1.2,4.7-2.4c0.8-0.6,1.4-1.3,1.8-2.1c0.2-0.5,0.7-0.8,1.2-0.9
		c0.2,0,0.5-0.1,0.7-0.2c0.3,0,0.6-0.1,0.9,0c0.4,0,0.6,0.3,0.4,0.7c-0.1,0.2-0.2,0.3-0.3,0.5c-1,1.1-1.9,2.3-2.9,3.4
		c-0.2,0.3-0.5,0.6-0.7,0.9c0.1,0.3,0.3,0.3,0.5,0.3c0.6,0,1.2,0,1.8,0c0.6,0,1.1-0.2,1.4-0.7c1.2-1.4,2.4-2.9,3.6-4.3
		c0.1-0.1,0.2-0.3,0.4-0.4c0.6-0.3,1.3-0.5,2.1-0.6c0.5,0,0.7,0.3,0.4,0.7c-0.2,0.3-0.4,0.6-0.6,0.8c-1,1.2-2,2.4-3,3.6
		c-0.1,0.2-0.2,0.3-0.3,0.5c0.1,0.3,0.3,0.3,0.5,0.3c0.6,0,1.2,0,1.9,0c0.5,0,1.1-0.2,1.4-0.6c1.2-1.5,2.5-3,3.7-4.4
		c0.1-0.2,0.3-0.3,0.5-0.4c0.5-0.2,1-0.3,1.5-0.4c0.1,0,0.3,0,0.4,0c0.3,0.1,0.4,0.2,0.3,0.5c-0.1,0.2-0.3,0.5-0.4,0.7
		c-0.4,0.4-0.7,0.9-1.1,1.3c-0.4,0.5-0.8,1-1.2,1.5c-0.1,0.1-0.2,0.3-0.2,0.5c-0.1,0.6,0.3,1.1,0.9,1.2c0.4,0.1,0.8,0.1,1.3,0.1
		c1.3-0.2,2.6-0.5,3.9-0.9c0.7-0.3,1.4-0.5,2.2-0.8c0,0,0.1,0.1,0.1,0.2c0.5,0.8,1.3,1.3,2.2,1.5c0.9,0.1,1.9,0.1,2.8-0.1
		c1.5-0.3,2.9-0.8,4.2-1.4l0.6-0.2c0,0,0.1,0.1,0.1,0.2c0.4,0.8,1.1,1.4,2,1.6c0.7,0.1,1.4,0.1,2.1-0.1c1.3-0.3,2.6-0.9,3.7-1.7
		c1-0.7,2-1.5,2.7-2.6c0.3-0.6,0.8-1,1.5-1.2c1.3-0.4,2.4-1.4,3.1-2.6c0.2-0.3,0.3-0.6,0.3-0.9C142,14,141.6,14,141.1,14z
		 M81.3,15.2C81.3,15.2,81.3,15.2,81.3,15.2c-0.8,0.5-1.8,0.3-2.4-0.4C79.4,14.1,80.8,14.4,81.3,15.2C81.3,15.2,81.3,15.2,81.3,15.2
		L81.3,15.2z M79,13.7c1.6-2.4,3.3-4.7,5.4-6.7c0.5,0.3,1,0.7,1.4,1.2c0.7,0.8,0.9,2,0.4,3c-0.3,0.7-0.7,1.3-1.3,1.8
		c-0.7,0.7-1.5,1.2-2.4,1.6C81.6,13.7,80.3,13.3,79,13.7z M95.3,17.1c-0.1,0.1-0.2,0.2-0.3,0.3c-0.5,0.3-0.9,0.7-1.1,1.3
		c0,0.1-0.1,0.2-0.1,0.3c0,0.4-0.3,0.8-0.6,1c-0.6,0.5-1.4,0.9-2.2,1.2c-0.4,0.1-0.8,0.2-1.2,0.1c0,0-0.1,0-0.1,0
		c-0.5-0.1-0.8-0.6-0.7-1.2c0-0.3,0.1-0.6,0.3-0.8c0.8-1.5,2.2-2.7,3.8-3.4c0.1-0.1,0.3-0.1,0.5-0.1c0.2-0.1,0.3-0.1,0.5-0.1v0
		c0.1,0,0.3,0,0.4,0c0.1,0,0.2,0,0.4,0.1C95.3,16,95.5,16.6,95.3,17.1z M120.4,19.4c0.1-0.9,0.5-1.7,1.2-2.4c0.9-0.9,2-1.4,3.2-1.6
		c0.3-0.1,0.4,0.1,0.3,0.4c-0.1,0.4-0.4,0.8-0.6,1.1c-0.7,0.8-1.6,1.5-2.6,1.9C121.4,19.1,121,19.2,120.4,19.4L120.4,19.4z
		 M137.1,16.8c0,0.3-0.2,0.6-0.4,0.7c-0.6,0.3-1.1,0.9-1.1,1.6c0,0.3-0.2,0.7-0.5,0.9c-0.6,0.5-1.3,0.9-2,1.2
		c-0.5,0.2-1,0.3-1.4,0.2c0,0-0.1,0-0.1,0c-0.5-0.1-0.9-0.7-0.7-1.2c0-0.3,0.1-0.6,0.3-0.8c0.8-1.5,2.2-2.7,3.9-3.4
		c0.4-0.2,0.9-0.2,1.3-0.1c0,0,0.1,0,0.1,0C136.8,15.7,137.2,16.2,137.1,16.8z M62.5,18.8h-1.1c-0.2,0-0.4,0.1-0.5,0.2
		c-0.2,0.3-0.5,0.6-0.8,0.8c-1.1,0.9-2.4,1.5-3.8,1.9c-0.4,0.1-0.7,0.1-1.1,0.1c-0.6,0-0.8-0.3-0.7-0.9c0-0.2,0.1-0.3,0.2-0.4
		c0.2-0.3,0.4-0.6,0.6-0.9c0.9-1.2,1.9-2.4,2.9-3.5c0.2-0.2,0.4-0.5,0.6-0.8c-0.2-0.1-0.4-0.1-0.6-0.1H57c-0.7,0-1.4,0-1.9,0.6
		c-0.4-0.5-0.9-0.9-1.6-1c-0.6-0.1-1.3-0.2-1.9-0.1c-1.8,0.2-3.6,1-5,2.1c-1.1,0.8-2,2-2.5,3.3c0,0.1-0.1,0.2-0.1,0.3
		c-1.2,0-2.5-0.2-3.7-0.5c0-0.1,0-0.1,0.1-0.2c0.8-1,1.5-1.9,2.3-2.9c0.1-0.1,0.3-0.2,0.4-0.3c0.6-0.3,1.2-0.5,1.8-0.8
		c2.6-1.3,5-3.1,7-5.2c0.6-0.6,1.1-1.3,1.6-2c0.2-0.3,0.3-0.6,0.4-0.9c0-0.1,0.1-0.2,0.1-0.3c0-0.4-0.3-0.7-0.7-0.7
		c-0.3,0-0.6,0-0.9,0C51.1,7,50.1,7.4,49.1,8c-2,1.2-3.9,2.7-5.6,4.3c-2,1.8-3.8,3.8-5.6,5.8l-0.4,0.4c-0.2-0.1-0.3-0.2-0.5-0.3
		c-0.3-0.1-0.6-0.2-0.9-0.3c-0.7-0.1-1.1,0.5-0.8,1.2c0.1,0.2,0.1,0.3,0.2,0.4c-0.1,0-0.1,0.1-0.1,0.1c-1.3,0.5-2.7,0.9-4.1,1.2
		C31,21,30.6,21,30.1,20.9c-0.3-0.1-0.4-0.3-0.3-0.6c0.1-0.2,0.2-0.4,0.3-0.5c0.7-0.9,1.4-1.9,2-2.8c0.1-0.2,0.3-0.3,0.5-0.4
		c0.5-0.2,0.9-0.3,1.4-0.5c2.8-1.3,5.4-3.2,7.6-5.4c0.6-0.6,1.2-1.3,1.7-2.1c0.2-0.3,0.3-0.6,0.4-0.9C44,7,43.7,6.7,43,6.6
		c-0.5,0-1,0.1-1.5,0.2c-1.2,0.4-2.3,0.9-3.3,1.6c-2.2,1.5-4.2,3.1-6.1,5c-1.8,1.8-3.5,3.7-5.2,5.6c-0.1,0.2-0.3,0.3-0.5,0.4
		c-0.9,0.4-1.9,0.8-2.8,1.2c-0.3,0.1-0.5,0.2-0.8,0.2c-0.2,0-0.5,0.1-0.7-0.1c-0.2-0.2,0-0.5,0.1-0.7c0-0.1,0.1-0.2,0.2-0.3
		c0.2-0.3,0.4-0.7,0.7-1c1.7-2,3.4-4,5.1-6.1c1.6-1.9,3.2-3.7,4.8-5.6C33,7.1,33.1,7,33.2,6.9c0.1-0.2,0-0.3-0.2-0.3
		c-0.1,0-0.2,0-0.3,0c-0.8,0-1.5,0-2.3,0c-0.6-0.1-1.2,0.1-1.6,0.6c0,0-0.1,0-0.1,0c-1.1-0.6-2.3-0.9-3.6-0.8
		c-0.9,0-1.8,0.1-2.6,0.3c-5,1-9.4,3.8-12.4,7.9c-1,1.2-1.6,2.7-1.9,4.2c-0.3,1.7,0.6,3.4,2.3,4c0.6,0.2,1.2,0.3,1.9,0.2
		c1.5-0.1,3.1-0.5,4.5-1.2c0.1,0,0.2-0.1,0.3-0.1c0.1,0.8,0.4,1.1,1.1,1.2c0.4,0.1,0.9,0.1,1.3,0c1.3-0.1,2.6-0.4,3.9-0.9l1.6-0.5
		c0,0.8,0.3,1.1,1.1,1.2c0.2,0.1,0.5,0.1,0.8,0.1c0.8-0.1,1.6-0.1,2.3-0.2c1.9-0.4,3.7-0.9,5.5-1.5c0.1,0,0.2-0.1,0.4-0.1
		c-0.1,0.1-0.1,0.2-0.1,0.2c-2,2.1-4,4.3-6,6.4c-0.8,0.8-1.7,1.5-2.7,2c-1.2,0.6-2.6,0.6-3.9,0.1c-0.5-0.2-0.9-0.5-1.4-0.8L20,30
		c1.3,1.1,3,1.7,4.7,1.6c1.3,0,2.5-0.4,3.7-0.9c1.7-0.8,3.3-1.9,4.7-3.2c1.7-1.5,3.3-3.2,4.8-4.9c0.5-0.5,0.9-1,1.4-1.5
		c1.5,0.3,3.1,0.3,4.7,0.1c0.1,0.1,0.1,0.1,0.1,0.1c0.2,1,0.8,1.4,1.7,1.7c1,0.2,2,0.2,2.9-0.1c0.7-0.2,1.4-0.4,2.2-0.7
		c0.2,0.4,0.7,0.7,1.2,0.8c0.5,0.1,1.1,0.2,1.6,0.2c0.9-0.1,1.7-0.2,2.6-0.4c2.1-0.5,4.1-1.5,5.6-3c0.3-0.3,0.6-0.6,0.8-1
		C62.6,18.9,62.6,18.8,62.5,18.8z M45.4,13.2c1.3-1.5,2.7-2.9,4.3-4.2c0.3-0.2,0.6-0.4,0.9-0.7c0.1-0.1,0.2-0.1,0.3-0.2
		c0.4-0.1,0.6,0,0.5,0.4c0,0.2-0.1,0.4-0.2,0.6c-0.2,0.4-0.4,0.8-0.7,1.1c-1.5,1.7-3.2,3.2-5.3,4.2c-0.4,0.2-0.9,0.4-1.4,0.5
		l-0.1-0.1C44.4,14.3,44.9,13.7,45.4,13.2z M33.7,14.9L33.7,14.9c0.5-0.6,0.9-1.1,1.4-1.7c1.3-1.5,2.8-2.9,4.3-4.2
		c0.3-0.3,0.7-0.5,1.1-0.7C40.8,8.1,41,8,41.2,8.2c0.2,0.2,0.2,0.4,0.1,0.7c-0.2,0.4-0.4,0.9-0.7,1.2c-1.6,2-3.7,3.6-6.1,4.7
		c-0.2,0.1-0.5,0.2-0.8,0.3L33.7,14.9C33.7,14.9,33.7,14.9,33.7,14.9L33.7,14.9z M19.4,18.4c-1.1,1.3-2.7,2.1-4.4,2.3
		c-0.7,0.1-1.5-0.1-2.1-0.5c-0.6-0.4-1-1.1-0.8-1.9c0.1-0.5,0.3-1,0.5-1.5c0.6-1.2,1.4-2.3,2.3-3.2c1.6-1.8,3.6-3.3,5.7-4.5
		c1.2-0.7,2.4-1.1,3.8-1.3c0.1,0,0.1,0,0.3,0h0.4V7.6c0.4,0.1,0.7,0.1,1.1,0.3c0.1,0,0.1,0,0.1,0.1c0.5,0.2,0.7,0.9,0.5,1.4
		c-0.2,0.6-0.5,1.1-0.9,1.5C23.8,13.3,21.6,15.9,19.4,18.4z M53.7,17.3c-0.8,1-1.5,1.9-2.3,2.9c-0.3,0.4-0.8,0.6-1.2,0.8
		c-0.4,0.2-0.9,0.3-1.4,0.4c-0.9,0.1-1.6-0.4-1.4-1.4c0.1-0.5,0.3-0.9,0.6-1.3c0.9-1.4,2.3-2.4,3.9-2.9c0.2-0.1,0.5-0.1,0.8-0.1
		c0.8,0,1.3,0.4,1.3,1.1C53.9,17,53.9,17.2,53.7,17.3z"/>
</g>
</svg>
